<svg id="vuesax_bold_heart" data-name="vuesax/bold/heart" xmlns="http://www.w3.org/2000/svg" width="24" height="24" viewBox="0 0 24 24">
  <g id="vuesax_bold_heart-2" data-name="vuesax/bold/heart">
    <g id="heart">
      <path id="Vector" d="M10,2.23A5.552,5.552,0,0,0,0,5.59,10.678,10.678,0,0,0,.52,8.9c1.58,5,6.45,7.99,8.86,8.81a2.181,2.181,0,0,0,1.24,0c2.41-.82,7.28-3.81,8.86-8.81A10.678,10.678,0,0,0,20,5.59,5.552,5.552,0,0,0,10,2.23Z" transform="translate(2 3.102)" fill="#fff"/>
      <path id="Vector-2" data-name="Vector" d="M24,0V24H0V0Z" transform="translate(24 24) rotate(180)" fill="#fff" opacity="0"/>
    </g>
  </g>
</svg>
