<svg xmlns="http://www.w3.org/2000/svg" width="20.343" height="20" viewBox="0 0 20.343 20">
  <g id="vuesax_bulk_home" data-name="vuesax/bulk/home" transform="translate(-1.83 -2)">
    <g id="home">
      <path id="Vector" d="M12.45.77A3.765,3.765,0,0,0,7.9.76L1.35,6.01A3.917,3.917,0,0,0,.04,9.44L1.3,16.98A3.716,3.716,0,0,0,4.87,20h10.6a3.773,3.773,0,0,0,3.58-3.03l1.26-7.54A4.018,4.018,0,0,0,19,6.01Z" transform="translate(1.83 2)" fill="#fff"/>
      <path id="Vector-2" data-name="Vector" d="M0,3.75v-3A.755.755,0,0,1,.75,0,.755.755,0,0,1,1.5.75v3a.755.755,0,0,1-.75.75A.755.755,0,0,1,0,3.75Z" transform="translate(11.25 14.25)" fill="#5c66e3"/>
    </g>
  </g>
</svg>
