<svg id="vuesax_bold_judge" data-name="vuesax/bold/judge" xmlns="http://www.w3.org/2000/svg" width="24" height="24" viewBox="0 0 24 24">
  <g id="judge">
    <path id="Vector" d="M24,0V24H0V0Z" fill="#fff" opacity="0"/>
    <path id="Vector-2" data-name="Vector" d="M5.48,6.23a.742.742,0,0,1-.53-.22L0,1.06.53.53,1.06,0,6.01,4.95a.754.754,0,0,1,0,1.06A.742.742,0,0,1,5.48,6.23Z" transform="translate(14.529 13.031)" fill="#fff"/>
    <path id="Vector-3" data-name="Vector" d="M8.723,6.094a1,1,0,0,1,0,1.41l-.9.91a2.04,2.04,0,0,1-2.89,0L.593,4.074a2.046,2.046,0,0,1,0-2.88L1.5.284a1.017,1.017,0,0,1,1.42.01Z" transform="translate(3.547 8.984)" fill="#fff"/>
    <path id="Vector-4" data-name="Vector" d="M7.52,11.622a1.014,1.014,0,0,1-1.44,0L.3,5.843A1.014,1.014,0,0,1,.3,4.4L4.11.593a2.046,2.046,0,0,1,2.88,0l4.34,4.34a2.058,2.058,0,0,1,0,2.89Z" transform="translate(7.26 2.367)" fill="#fff"/>
    <path id="Vector-5" data-name="Vector" d="M.75,1.5A.755.755,0,0,1,0,.75.755.755,0,0,1,.75,0h6A.755.755,0,0,1,7.5.75a.755.755,0,0,1-.75.75Z" transform="translate(1.25 20.25)" fill="#fff"/>
  </g>
</svg>
