<svg id="Layer_2" data-name="Layer 2" xmlns="http://www.w3.org/2000/svg" width="24" height="24" viewBox="0 0 24 24">
  <g id="log-out">
    <rect id="Rectangle_3664" data-name="Rectangle 3664" width="24" height="24" transform="translate(24) rotate(90)" fill="#fff" opacity="0"/>
    <path id="Path_17286" data-name="Path 17286" d="M5,6A1,1,0,0,1,5,4H7A1,1,0,0,1,8,5V19a1,1,0,0,1-1,1H5a1,1,0,0,1,0-2H6V6Z" transform="translate(12)" fill="#fff"/>
    <path id="Path_17287" data-name="Path 17287" d="M9.183,11.42l2.82-4a1,1,0,1,1,1.63,1.16L11.913,11H20a1,1,0,0,1,0,2H12l1.8,2.4a1,1,0,0,1-1.6,1.2l-3-4a1,1,0,0,1-.02-1.18Z" transform="translate(-6.003)" fill="#fff"/>
  </g>
</svg>
