<svg id="vuesax_bulk_message-question" data-name="vuesax/bulk/message-question" xmlns="http://www.w3.org/2000/svg" width="24" height="24" viewBox="0 0 24 24">
  <g id="message-question">
    <path id="Vector" d="M24,0V24H0V0Z" fill="none" opacity="0"/>
    <path id="Vector-2" data-name="Vector" d="M11,16,6.55,18.96A1,1,0,0,1,5,18.13V16a4.724,4.724,0,0,1-5-5V5A4.724,4.724,0,0,1,5,0H15a4.724,4.724,0,0,1,5,5v6a4.724,4.724,0,0,1-5,5Z" transform="translate(2 2.43)" fill="#fff"/>
    <g id="Group" transform="translate(9.59 6.11)">
      <path id="Vector-3" data-name="Vector" d="M1.66,5.25V5.04A2.327,2.327,0,0,1,2.83,3.09c.37-.25.49-.42.49-.68a.91.91,0,0,0-1.82,0,.755.755,0,0,1-.75.75A.755.755,0,0,1,0,2.41a2.41,2.41,0,1,1,4.82,0A2.294,2.294,0,0,1,3.67,4.33c-.39.26-.51.43-.51.71v.21a.75.75,0,1,1-1.5,0Z" fill="#5c66e3"/>
    </g>
    <g id="Group-2" data-name="Group" transform="translate(11.25 13.1)">
      <path id="Vector-4" data-name="Vector" d="M0,.75a.75.75,0,1,1,.75.75A.755.755,0,0,1,0,.75Z" fill="#5c66e3"/>
    </g>
  </g>
</svg>
