<svg xmlns="http://www.w3.org/2000/svg" width="19.5" height="19.5" viewBox="0 0 19.5 19.5">
  <g id="vuesax_twotone_verify" data-name="vuesax/twotone/verify" transform="translate(0.75 0.75)">
    <g id="vuesax_twotone_verify-2" data-name="vuesax/twotone/verify">
      <g id="verify">
        <path id="Vector" d="M0,1.815,1.807,3.63,5.43,0" transform="translate(6.286 7.185)" fill="none" stroke="#00af80" stroke-linecap="round" stroke-linejoin="round" stroke-width="1.5" stroke-dasharray="0 0" opacity="0.34"/>
        <path id="Vector-2" data-name="Vector" d="M8.449.332l1.185,1.02a1.662,1.662,0,0,0,.945.353h1.275A1.453,1.453,0,0,1,13.3,3.152V4.427a1.682,1.682,0,0,0,.352.945l1.02,1.185a1.511,1.511,0,0,1,0,1.89l-1.02,1.185a1.662,1.662,0,0,0-.352.945v1.275A1.453,1.453,0,0,1,11.854,13.3H10.579a1.682,1.682,0,0,0-.945.352l-1.185,1.02a1.511,1.511,0,0,1-1.89,0l-1.185-1.02a1.662,1.662,0,0,0-.945-.352h-1.3a1.453,1.453,0,0,1-1.447-1.448V10.569a1.707,1.707,0,0,0-.345-.937L.326,8.439a1.51,1.51,0,0,1,0-1.875L1.339,5.372a1.707,1.707,0,0,0,.345-.937V3.144A1.453,1.453,0,0,1,3.131,1.7h1.3a1.682,1.682,0,0,0,.945-.352L6.559.332A1.511,1.511,0,0,1,8.449.332Z" transform="translate(1.504 1.505)" fill="none" stroke="#00af80" stroke-linecap="round" stroke-linejoin="round" stroke-width="1.5" stroke-dasharray="0 0"/>
        <path id="Vector-3" data-name="Vector" d="M18,0V18H0V0Z" fill="none" stroke="#00af80" stroke-width="1.5" opacity="0"/>
      </g>
    </g>
  </g>
</svg>
