<svg id="vuesax_bold_verify" data-name="vuesax/bold/verify" xmlns="http://www.w3.org/2000/svg" width="24" height="24" viewBox="0 0 24 24">
  <g id="vuesax_bold_verify-2" data-name="vuesax/bold/verify">
    <g id="verify">
      <path id="Vector" d="M10,20.005a1.924,1.924,0,0,1-1.256-.443L7.165,18.2a2.229,2.229,0,0,0-1.26-.47H4.175A1.933,1.933,0,0,1,2.245,15.8v-1.71a2.276,2.276,0,0,0-.46-1.25L.435,11.253a2.017,2.017,0,0,1,0-2.5l1.35-1.59a2.271,2.271,0,0,0,.46-1.25V4.2a1.932,1.932,0,0,1,1.931-1.93H5.9a2.287,2.287,0,0,0,1.26-.46L8.735.443A1.954,1.954,0,0,1,10,0a1.927,1.927,0,0,1,1.257.443L12.835,1.8a2.229,2.229,0,0,0,1.26.47h1.7a1.932,1.932,0,0,1,1.93,1.93V5.9a2.229,2.229,0,0,0,.471,1.26l1.36,1.58a2.02,2.02,0,0,1,.01,2.52l-1.36,1.58a2.234,2.234,0,0,0-.47,1.26v1.7A1.933,1.933,0,0,1,15.8,17.733H14.1a2.234,2.234,0,0,0-1.26.47l-1.58,1.36A1.956,1.956,0,0,1,10,20.005ZM6.375,9.245a.747.747,0,0,0-.53,1.278l2.42,2.42a.75.75,0,0,0,1.06,0l4.83-4.83a.76.76,0,0,0,0-1.06.755.755,0,0,0-1.06,0l-4.3,4.3L6.9,9.463A.743.743,0,0,0,6.375,9.245Z" transform="translate(2.006 1.996)" fill="#fff"/>
      <path id="Vector-2" data-name="Vector" d="M24,0V24H0V0Z" transform="translate(24 24) rotate(180)" fill="#fff" opacity="0"/>
    </g>
  </g>
</svg>
