<svg id="vuesax_bulk_wallet" data-name="vuesax/bulk/wallet" xmlns="http://www.w3.org/2000/svg" width="19.52" height="19.998" viewBox="0 0 19.52 19.998">
  <g id="vuesax_bulk_wallet-2" data-name="vuesax/bulk/wallet" transform="translate(-2.24 -2.002)">
    <g id="wallet">
      <path id="Vector" d="M7.67.588l-2.9,6.73H1.92A4.777,4.777,0,0,0,0,7.708l1.75-4.18.04-.09.06-.16a1.586,1.586,0,0,1,.08-.18C3.24.068,4.72-.622,7.7.518Z" transform="translate(5.199 2.002)" fill="#fff" opacity="0.8"/>
      <path id="Vector-2" data-name="Vector" d="M6.91,6.8H0L2.9.07,2.93,0c.14.05.29.12.44.17l2.21.93A6.617,6.617,0,0,1,8.2,2.78c.09.12.17.23.25.36a1.522,1.522,0,0,1,.2.43,1.338,1.338,0,0,1,.09.26A4.826,4.826,0,0,1,8.32,7,5.057,5.057,0,0,0,6.91,6.8Z" transform="translate(9.971 2.52)" fill="#fff"/>
      <path id="Vector-3" data-name="Vector" d="M19.52,6.83c0,.2-.01.4-.02.59-.19,3.5-2.14,5.26-5.84,5.26H5.86a5.394,5.394,0,0,1-.71-.05Q.38,12.315.05,7.54A5.648,5.648,0,0,1,0,6.83V4.88A4.894,4.894,0,0,1,2.96.39,4.777,4.777,0,0,1,4.88,0h9.76a5.057,5.057,0,0,1,1.41.2,4.9,4.9,0,0,1,3.47,4.68Z" transform="translate(2.24 9.32)" fill="#fff"/>
      <path id="Vector-4" data-name="Vector" d="M2.96,4.18A4.894,4.894,0,0,0,0,8.67V5.74A5.849,5.849,0,0,1,4.71,0Z" transform="translate(2.24 5.53)" fill="#fff" opacity="0.6"/>
      <path id="Vector-5" data-name="Vector" d="M3.47,8.11A4.9,4.9,0,0,0,0,3.43,4.826,4.826,0,0,0,.42.26,1.338,1.338,0,0,0,.33,0,5.84,5.84,0,0,1,3.47,5.18Z" transform="translate(18.289 6.09)" fill="#fff" opacity="0.6"/>
    </g>
  </g>
</svg>
