<svg id="Group_46463" data-name="Group 46463" xmlns="http://www.w3.org/2000/svg" width="14.241" height="14.241" viewBox="0 0 14.241 14.241">
  <path id="Path_80477" data-name="Path 80477" d="M7.121,0A7.121,7.121,0,1,1,0,7.121,7.121,7.121,0,0,1,7.121,0Z" fill="#fff"/>
  <path id="Icon_material-local-phone" data-name="Icon material-local-phone" d="M6.072,7.882a6.578,6.578,0,0,0,2.861,2.861l.955-.955a.432.432,0,0,1,.443-.1,4.953,4.953,0,0,0,1.55.247.435.435,0,0,1,.434.434v1.515a.435.435,0,0,1-.434.434A7.381,7.381,0,0,1,4.5,4.934.435.435,0,0,1,4.934,4.5h1.52a.435.435,0,0,1,.434.434,4.933,4.933,0,0,0,.247,1.55.436.436,0,0,1-.109.443Z" transform="translate(-1.287 -1.287)" fill="#942a5b"/>
</svg>
