<svg id="vuesax_outline_edit" data-name="vuesax/outline/edit" xmlns="http://www.w3.org/2000/svg" width="14" height="14" viewBox="0 0 14 14">
  <g id="vuesax_outline_edit-2" data-name="vuesax/outline/edit">
    <g id="edit">
      <path id="Vector" d="M4.521,12.542C1.353,12.542,0,11.188,0,8.021v-3.5C0,1.353,1.353,0,4.521,0H5.688a.441.441,0,0,1,.438.438.441.441,0,0,1-.437.438H4.521C1.832.875.875,1.832.875,4.521v3.5c0,2.689.957,3.646,3.646,3.646h3.5c2.689,0,3.646-.957,3.646-3.646V6.854a.437.437,0,1,1,.875,0V8.021c0,3.168-1.353,4.521-4.521,4.521Z" transform="translate(0.729 0.729)" fill="#292d32"/>
      <path id="Vector-2" data-name="Vector" d="M1.282,9.737A1.307,1.307,0,0,1,.36,9.376,1.315,1.315,0,0,1,.017,8.238L.268,6.482A2.011,2.011,0,0,1,.775,5.467l4.6-4.6A2.526,2.526,0,0,1,7.121,0a2.526,2.526,0,0,1,1.75.871A2.44,2.44,0,0,1,9.735,2.8a2.59,2.59,0,0,1-.864,1.563l-4.6,4.6a2.016,2.016,0,0,1-1.015.508L1.5,9.72A.987.987,0,0,1,1.282,9.737ZM7.114.878h0a1.652,1.652,0,0,0-1.124.611l-4.6,4.6a1.189,1.189,0,0,0-.262.519L.88,8.361a.46.46,0,0,0,.1.4.411.411,0,0,0,.3.106.725.725,0,0,0,.1-.007l1.756-.25a1.168,1.168,0,0,0,.519-.262l4.6-4.6a1.787,1.787,0,0,0,.606-1.033,1.62,1.62,0,0,0-.606-1.231A1.677,1.677,0,0,0,7.114.878Z" transform="translate(3.676 0.582)" fill="#292d32"/>
      <path id="Vector-3" data-name="Vector" d="M3.2,3.744A4.63,4.63,0,0,1,.016.559a.443.443,0,0,1,.3-.543.434.434,0,0,1,.537.3A3.748,3.748,0,0,0,3.434,2.9a.44.44,0,0,1,.3.542.429.429,0,0,1-.42.321A.376.376,0,0,1,3.2,3.744Z" transform="translate(8.261 1.973)" fill="#292d32"/>
      <path id="Vector-4" data-name="Vector" d="M14,0V14H0V0Z" fill="none" opacity="0"/>
    </g>
  </g>
</svg>
