<svg id="vuesax_bulk_frame" data-name="vuesax/bulk/frame" xmlns="http://www.w3.org/2000/svg" width="16" height="16" viewBox="0 0 16 16">
  <g id="vuesax_bulk_frame-2" data-name="vuesax/bulk/frame">
    <g id="frame">
      <path id="Vector" d="M6.666,11.42A7.446,7.446,0,0,1,.5,7.607a3.85,3.85,0,0,1,0-3.793A8.846,8.846,0,0,1,3.273.994,6.415,6.415,0,0,1,6.666,0a7.457,7.457,0,0,1,6.167,3.814,3.84,3.84,0,0,1,0,3.793,8.862,8.862,0,0,1-2.773,2.82A6.418,6.418,0,0,1,6.666,11.42Zm0-8.4A2.693,2.693,0,1,0,9.36,5.713,2.7,2.7,0,0,0,6.666,3.02Z" transform="translate(1.334 2.287)" fill="#00af80" opacity="0.4"/>
      <path id="Vector-2" data-name="Vector" d="M0,1.907A1.9,1.9,0,1,0,1.9,0,1.9,1.9,0,0,0,0,1.907Z" transform="translate(6.1 6.093)" fill="#00af80"/>
      <path id="Vector-3" data-name="Vector" d="M16,0V16H0V0Z" fill="#00af80" opacity="0"/>
    </g>
  </g>
</svg>
