<svg xmlns="http://www.w3.org/2000/svg" width="17.022" height="16.89" viewBox="0 0 17.022 16.89">
  <g id="Group_46761" data-name="Group 46761" transform="translate(-337 -615)">
    <g id="Group_46724" data-name="Group 46724" transform="translate(4896.916 -5235.447)">
      <g id="vuesax_bulk_judge" data-name="vuesax/bulk/judge" transform="translate(-4559.916 5850.447)">
        <g id="vuesax_bulk_judge-2" data-name="vuesax/bulk/judge">
          <g id="judge">
            <path id="Vector" d="M17.022,0V16.89H0V0Z" fill="#5c66e3" opacity="0"/>
            <g id="Group" transform="translate(10.305 9.17)">
              <path id="Vector-2" data-name="Vector" d="M3.887,4.384a.528.528,0,0,1-.376-.155L0,.746.376.373.752,0,4.263,3.484a.528.528,0,0,1-.376.9Z" fill="#5c66e3"/>
            </g>
            <path id="Vector-3" data-name="Vector" d="M6.186,4.288a.7.7,0,0,1,0,.992l-.638.64a1.455,1.455,0,0,1-2.05,0L.42,2.867A1.432,1.432,0,0,1,.42.84L1.066.2A.726.726,0,0,1,2.073.207Z" transform="translate(2.516 6.324)" fill="#5c66e3"/>
            <path id="Vector-4" data-name="Vector" d="M5.326,8.172a.723.723,0,0,1-1.021,0L.213,4.112a.71.71,0,0,1,0-1.013L2.915.417a1.459,1.459,0,0,1,2.043,0L8.036,3.471A1.439,1.439,0,0,1,8.029,5.5Z" transform="translate(5.156 1.673)" fill="#5c66e3"/>
            <g id="Group-2" data-name="Group" transform="translate(0.887 14.251)">
              <path id="Vector-5" data-name="Vector" d="M.532,1.056A.534.534,0,0,1,0,.528.534.534,0,0,1,.532,0H4.787a.534.534,0,0,1,.532.528.534.534,0,0,1-.532.528Z" fill="#5c66e3"/>
            </g>
          </g>
        </g>
      </g>
    </g>
    <path id="Vector-6" data-name="Vector" d="M2.447,5.12a1.266,1.266,0,0,1-.919-.453L.274,3.321a1.284,1.284,0,0,1-.39-.913,1.283,1.283,0,0,1,.453-.883L1.682.271A1.3,1.3,0,0,1,2.558-.12a1.27,1.27,0,0,1,.919.453L4.732,1.679a1.167,1.167,0,0,1-.063,1.8L3.324,4.73A1.3,1.3,0,0,1,2.447,5.12ZM1.665,2.507a.412.412,0,0,0-.294.12.421.421,0,0,0,0,.587l.834.834a.412.412,0,0,0,.127.08.09.09,0,0,0,.022.007l.019.006a.274.274,0,0,0,.106.02h.04a.318.318,0,0,0,.133-.026h.014a.388.388,0,0,0,.12-.08c.007-.007.007-.007.013-.007l.834-.834a.413.413,0,0,0-.006-.587.413.413,0,0,0-.294-.121.417.417,0,0,0-.293.121l-.12.12V1.252A.416.416,0,0,0,2.5.832a.421.421,0,0,0-.42.42V2.747l-.12-.12A.412.412,0,0,0,1.665,2.507Z" transform="matrix(1, -0.017, 0.017, 1, 343.599, 617.844)" fill="#fff"/>
  </g>
</svg>
