<svg xmlns="http://www.w3.org/2000/svg" width="17.022" height="16.89" viewBox="0 0 17.022 16.89">
  <g id="Group_46722" data-name="Group 46722" transform="translate(4559.916 -5850.447)">
    <g id="vuesax_bulk_judge" data-name="vuesax/bulk/judge" transform="translate(-4559.916 5850.447)">
      <g id="vuesax_bulk_judge-2" data-name="vuesax/bulk/judge">
        <g id="judge">
          <path id="Vector" d="M17.022,0V16.89H0V0Z" fill="#e45c5c" opacity="0"/>
          <g id="Group" transform="translate(10.305 9.17)">
            <path id="Vector-2" data-name="Vector" d="M3.887,4.384a.528.528,0,0,1-.376-.155L0,.746.376.373.752,0,4.263,3.484a.528.528,0,0,1-.376.9Z" fill="#e45c5c"/>
          </g>
          <path id="Vector-3" data-name="Vector" d="M6.186,4.288a.7.7,0,0,1,0,.992l-.638.64a1.455,1.455,0,0,1-2.05,0L.42,2.867A1.432,1.432,0,0,1,.42.84L1.066.2A.726.726,0,0,1,2.073.207Z" transform="translate(2.516 6.324)" fill="#e45c5c"/>
          <path id="Vector-4" data-name="Vector" d="M5.326,8.172a.723.723,0,0,1-1.021,0L.213,4.112a.71.71,0,0,1,0-1.013L2.915.417a1.459,1.459,0,0,1,2.043,0L8.036,3.471A1.439,1.439,0,0,1,8.029,5.5Z" transform="translate(5.156 1.673)" fill="#e45c5c"/>
          <g id="Group-2" data-name="Group" transform="translate(0.887 14.251)">
            <path id="Vector-5" data-name="Vector" d="M.532,1.056A.534.534,0,0,1,0,.528.534.534,0,0,1,.532,0H4.787a.534.534,0,0,1,.532.528.534.534,0,0,1-.532.528Z" fill="#e45c5c"/>
          </g>
        </g>
      </g>
    </g>
  </g>
</svg>
