<svg xmlns="http://www.w3.org/2000/svg" width="16" height="16" viewBox="0 0 16 16">
  <g id="vuesax_twotone_refresh-left-square" data-name="vuesax/twotone/refresh-left-square" transform="translate(0.5 0.5)">
    <g id="vuesax_twotone_refresh-left-square-2" data-name="vuesax/twotone/refresh-left-square">
      <g id="refresh-left-square">
        <g id="Group_43" data-name="Group 43" transform="translate(4.375 3.588)" opacity="0.4">
          <path id="Vector" d="M2.081.156A3.589,3.589,0,0,1,3.125,0a3.12,3.12,0,1,1-2.6,1.388" transform="translate(0 0.95)" fill="none" stroke="#858585" stroke-linecap="round" stroke-linejoin="round" stroke-width="1" stroke-dasharray="0 0"/>
          <path id="Vector-2" data-name="Vector" d="M0,1.194,1.038,0" transform="translate(1.638)" fill="none" stroke="#858585" stroke-linecap="round" stroke-linejoin="round" stroke-width="1" stroke-dasharray="0 0"/>
          <path id="Vector-3" data-name="Vector" d="M0,0,1.213.887" transform="translate(1.638 1.194)" fill="none" stroke="#858585" stroke-linecap="round" stroke-linejoin="round" stroke-width="1" stroke-dasharray="0 0"/>
        </g>
        <path id="Vector-4" data-name="Vector" d="M8.125,12.5c3.125,0,4.375-1.25,4.375-4.375V4.375C12.5,1.25,11.25,0,8.125,0H4.375C1.25,0,0,1.25,0,4.375v3.75C0,11.25,1.25,12.5,4.375,12.5Z" transform="translate(1.25 1.25)" fill="none" stroke="#858585" stroke-linecap="round" stroke-linejoin="round" stroke-width="1" stroke-dasharray="0 0"/>
        <path id="Vector-5" data-name="Vector" d="M15,0V15H0V0Z" fill="none" stroke="#858585" stroke-width="1" opacity="0"/>
      </g>
    </g>
  </g>
</svg>
