<svg xmlns="http://www.w3.org/2000/svg" width="16.692" height="16.692" viewBox="0 0 16.692 16.692">
  <g id="Group_46424" data-name="Group 46424" transform="translate(-279.654 -797)">
    <g id="Path_18606" data-name="Path 18606" transform="translate(279.654 797)" fill="none">
      <path d="M8.346,0A8.346,8.346,0,1,1,0,8.346,8.346,8.346,0,0,1,8.346,0Z" stroke="none"/>
      <path d="M 8.34600830078125 0.9999980926513672 C 4.295408248901367 0.9999980926513672 0.9999980926513672 4.295408248901367 0.9999980926513672 8.34600830078125 C 0.9999980926513672 12.39660835266113 4.295408248901367 15.69201850891113 8.34600830078125 15.69201850891113 C 12.39660835266113 15.69201850891113 15.69201850891113 12.39660835266113 15.69201850891113 8.34600830078125 C 15.69201850891113 4.295408248901367 12.39660835266113 0.9999980926513672 8.34600830078125 0.9999980926513672 M 8.34600830078125 -1.9073486328125e-06 C 12.95537853240967 -1.9073486328125e-06 16.69201850891113 3.736638069152832 16.69201850891113 8.34600830078125 C 16.69201850891113 12.95537853240967 12.95537853240967 16.69201850891113 8.34600830078125 16.69201850891113 C 3.736638069152832 16.69201850891113 -1.9073486328125e-06 12.95537853240967 -1.9073486328125e-06 8.34600830078125 C -1.9073486328125e-06 3.736638069152832 3.736638069152832 -1.9073486328125e-06 8.34600830078125 -1.9073486328125e-06 Z" stroke="none" fill="#9b9b9b"/>
    </g>
    <path id="Icon_awesome-share-alt" data-name="Icon awesome-share-alt" d="M5.366,4.878a1.457,1.457,0,0,0-.911.319L2.892,4.22a1.472,1.472,0,0,0,0-.635l1.562-.977a1.461,1.461,0,1,0-.517-.827l-1.562.977a1.464,1.464,0,1,0,0,2.29l1.562.977A1.464,1.464,0,1,0,5.366,4.878Z" transform="translate(283.542 801.443)" fill="#9b9b9b"/>
  </g>
</svg>
