<svg id="Group_46465" data-name="Group 46465" xmlns="http://www.w3.org/2000/svg" width="14.241" height="14.241" viewBox="0 0 14.241 14.241">
  <path id="Path_80477" data-name="Path 80477" d="M7.121,0A7.121,7.121,0,1,1,0,7.121,7.121,7.121,0,0,1,7.121,0Z" fill="#fff"/>
  <g id="vuesax_bulk_sms" data-name="vuesax/bulk/sms" transform="translate(1.59 1.59)">
    <g id="sms">
      <path id="Vector" d="M11.062,0V11.062H0V0Z" fill="none" opacity="0"/>
      <path id="Vector-2" data-name="Vector" d="M2.3,7.836A2.067,2.067,0,0,1,0,5.531V2.3A2.067,2.067,0,0,1,2.3,0H6.914a2.067,2.067,0,0,1,2.3,2.3V5.531a2.067,2.067,0,0,1-2.3,2.3Z" transform="translate(0.922 1.613)" fill="#f7a207"/>
      <g id="Group" transform="translate(2.88 3.8)">
        <path id="Vector-3" data-name="Vector" d="M1.574,1.768.131.616A.344.344,0,0,1,.559.076L2,1.229a1.1,1.1,0,0,0,1.3,0L4.74.076a.34.34,0,0,1,.484.055.34.34,0,0,1-.055.484L3.726,1.768a1.692,1.692,0,0,1-1.074.364,1.713,1.713,0,0,1-1.079-.364Z" transform="translate(-0.001 0)" fill="#fff"/>
      </g>
    </g>
  </g>
</svg>
