<svg id="Group_46444" data-name="Group 46444" xmlns="http://www.w3.org/2000/svg" width="14.241" height="14.241" viewBox="0 0 14.241 14.241">
  <ellipse id="Ellipse_32" data-name="Ellipse 32" cx="6.406" cy="6.764" rx="6.406" ry="6.764" transform="translate(0.714 0.714)" fill="#27bd39"/>
  <g id="whatsapp" transform="translate(0 0)">
    <g id="Group_43650" data-name="Group 43650" transform="translate(0 0)">
      <path id="Path_80476" data-name="Path 80476" d="M7.122,0h0A7.112,7.112,0,0,0,1.356,11.288L.468,13.932l2.737-.874A7.117,7.117,0,1,0,7.122,0Zm4.143,10.05a2.009,2.009,0,0,1-1.4,1c-.372.079-.858.142-2.494-.536a8.918,8.918,0,0,1-3.545-3.13,4.064,4.064,0,0,1-.846-2.147A2.272,2.272,0,0,1,3.712,3.51a1.035,1.035,0,0,1,.728-.255c.088,0,.167,0,.239.008.209.009.314.021.452.351.172.414.59,1.435.64,1.54a.423.423,0,0,1,.03.385,1.23,1.23,0,0,1-.231.326c-.105.121-.2.214-.31.343-.1.113-.2.234-.084.443A6.317,6.317,0,0,0,6.332,8.087,5.236,5.236,0,0,0,8,9.117a.45.45,0,0,0,.5-.079A8.612,8.612,0,0,0,9.06,8.3a.4.4,0,0,1,.511-.155c.192.067,1.21.569,1.419.673s.347.155.4.243A1.772,1.772,0,0,1,11.266,10.05Z" transform="translate(0 0)" fill="#fff"/>
    </g>
  </g>
</svg>
