<svg xmlns="http://www.w3.org/2000/svg" width="21" height="21" viewBox="0 0 21 21">
  <g id="vuesax_twotone_calendar" data-name="vuesax/twotone/calendar" transform="translate(0.5 0.5)">
    <g id="vuesax_twotone_calendar-2" data-name="vuesax/twotone/calendar">
      <g id="calendar">
        <path id="Vector" d="M0,0V2.5" transform="translate(6.667 1.667)" fill="none" stroke="#00af80" stroke-linecap="round" stroke-linejoin="round" stroke-miterlimit="10" stroke-width="1.5" stroke-dasharray="0 0"/>
        <path id="Vector-2" data-name="Vector" d="M0,0V2.5" transform="translate(13.333 1.667)" fill="none" stroke="#00af80" stroke-linecap="round" stroke-linejoin="round" stroke-miterlimit="10" stroke-width="1.5" stroke-dasharray="0 0"/>
        <path id="Vector-3" data-name="Vector" d="M0,0H14.167" transform="translate(2.917 7.575)" fill="none" stroke="#00af80" stroke-linecap="round" stroke-linejoin="round" stroke-miterlimit="10" stroke-width="1.5" stroke-dasharray="0 0" opacity="0.6"/>
        <path id="Vector-4" data-name="Vector" d="M15,11.25c0,2.5-1.25,4.167-4.167,4.167H4.167C1.25,15.417,0,13.75,0,11.25V4.167C0,1.667,1.25,0,4.167,0h6.667C13.75,0,15,1.667,15,4.167Z" transform="translate(2.5 2.917)" fill="none" stroke="#00af80" stroke-linecap="round" stroke-linejoin="round" stroke-miterlimit="10" stroke-width="1.5" stroke-dasharray="0 0"/>
        <path id="Vector-5" data-name="Vector" d="M20,0V20H0V0Z" fill="none" stroke="#00af80" stroke-width="1" opacity="0"/>
        <path id="Vector-6" data-name="Vector" d="M.495.5H.5" transform="translate(12.584 10.917)" fill="none" stroke="#00af80" stroke-linecap="round" stroke-linejoin="round" stroke-width="2" stroke-dasharray="0 0" opacity="0.6"/>
        <path id="Vector-7" data-name="Vector" d="M.495.5H.5" transform="translate(12.584 13.417)" fill="none" stroke="#00af80" stroke-linecap="round" stroke-linejoin="round" stroke-width="2" stroke-dasharray="0 0" opacity="0.6"/>
        <path id="Vector-8" data-name="Vector" d="M.495.5H.5" transform="translate(9.502 10.917)" fill="none" stroke="#00af80" stroke-linecap="round" stroke-linejoin="round" stroke-width="2" stroke-dasharray="0 0" opacity="0.6"/>
        <path id="Vector-9" data-name="Vector" d="M.495.5H.5" transform="translate(9.502 13.417)" fill="none" stroke="#00af80" stroke-linecap="round" stroke-linejoin="round" stroke-width="2" stroke-dasharray="0 0" opacity="0.6"/>
        <path id="Vector-10" data-name="Vector" d="M.495.5H.5" transform="translate(6.417 10.917)" fill="none" stroke="#00af80" stroke-linecap="round" stroke-linejoin="round" stroke-width="2" stroke-dasharray="0 0" opacity="0.6"/>
        <path id="Vector-11" data-name="Vector" d="M0,0H.007" transform="translate(6.912 13.917)" fill="none" stroke="#00af80" stroke-linecap="round" stroke-linejoin="round" stroke-width="2" stroke-dasharray="0 0" opacity="0.6"/>
      </g>
    </g>
  </g>
</svg>
