<svg id="Group_111" data-name="Group 111" xmlns="http://www.w3.org/2000/svg" width="25.444" height="15.726" viewBox="0 0 25.444 15.726">
  <rect id="Rectangle_39" data-name="Rectangle 39" width="6.88" height="12.364" transform="translate(9.282 1.681)" fill="#f16522"/>
  <path id="Path_90" data-name="Path 90" d="M1583.067-273.976a7.851,7.851,0,0,1,3-6.182,7.828,7.828,0,0,0-4.859-1.681,7.863,7.863,0,0,0-7.862,7.863,7.863,7.863,0,0,0,7.862,7.863,7.827,7.827,0,0,0,4.859-1.681,7.85,7.85,0,0,1-3-6.182" transform="translate(-1573.348 281.839)" fill="#e41b24"/>
  <path id="Path_91" data-name="Path 91" d="M1686.264-273.977a7.863,7.863,0,0,1-7.863,7.863,7.825,7.825,0,0,1-4.859-1.681,7.849,7.849,0,0,0,3-6.182,7.85,7.85,0,0,0-3-6.182,7.828,7.828,0,0,1,4.859-1.681,7.862,7.862,0,0,1,7.863,7.862m-.75,4.872v-.253h.1v-.051h-.26v.051h.1v.253Zm.5,0v-.3h-.08l-.092.21-.091-.21h-.08v.3h.056v-.23l.086.2h.058l.086-.2v.231Z" transform="translate(-1660.821 281.839)" fill="#f89e1c"/>
</svg>
