<svg xmlns="http://www.w3.org/2000/svg" width="40" height="33" viewBox="0 0 40 33">
  <g id="Group_45831" data-name="Group 45831" transform="translate(0 0)">
    <rect id="Rectangle_37" data-name="Rectangle 37" width="40" height="33" rx="8" transform="translate(0 0)" fill="#fff"/>
    <g id="paypal-icon" transform="translate(11.859 6.894)">
      <path id="Path_92" data-name="Path 92" d="M13.9,2.265C13.008,1.251,11.4.816,9.343.816H3.372a.855.855,0,0,0-.844.721L.041,17.3a.512.512,0,0,0,.506.592H4.234l.926-5.872-.029.184a.852.852,0,0,1,.841-.721H7.724c3.441,0,6.135-1.4,6.922-5.441q.035-.179.061-.35h0a3.817,3.817,0,0,0-.81-3.433" transform="translate(-0.035 -0.816)" fill="#27346a"/>
      <path id="Path_93" data-name="Path 93" d="M6.57,5.159a.749.749,0,0,1,.323-.073h4.681a9.769,9.769,0,0,1,1.544.112q.2.032.394.075.278.061.548.15a4.226,4.226,0,0,1,.647.274,3.816,3.816,0,0,0-.81-3.433C13.007,1.251,11.4.816,9.343.816H3.371a.855.855,0,0,0-.844.721L.041,17.3a.512.512,0,0,0,.506.593H4.234L6.155,5.717a.748.748,0,0,1,.416-.558Z" transform="translate(-0.035 -0.816)" fill="#27346a"/>
      <path id="Path_94" data-name="Path 94" d="M72.4,77.622c-.787,4.043-3.481,5.441-6.922,5.441H63.727a.851.851,0,0,0-.841.721l-1.152,7.3a.449.449,0,0,0,.443.519h3.107a.748.748,0,0,0,.738-.631l.03-.158.586-3.712.038-.205a.748.748,0,0,1,.738-.631h.465c3.01,0,5.367-1.223,6.056-4.76a4.054,4.054,0,0,0-.622-3.579,2.969,2.969,0,0,0-.851-.656C72.445,77.386,72.425,77.5,72.4,77.622Z" transform="translate(-57.791 -72.391)" fill="#2790c3"/>
      <path id="Path_95" data-name="Path 95" d="M88.615,67.982q-.184-.054-.371-.1t-.394-.075a9.714,9.714,0,0,0-1.544-.113h-4.68a.748.748,0,0,0-.738.631l-.995,6.308-.029.184A.851.851,0,0,1,80.7,74.1h1.752c3.441,0,6.135-1.4,6.922-5.441.023-.12.043-.235.061-.35a4.251,4.251,0,0,0-.647-.273q-.088-.029-.177-.055" transform="translate(-74.767 -63.429)" fill="#1f264f"/>
    </g>
  </g>
</svg>
