<svg id="vuesax_bulk_empty-wallet" data-name="vuesax/bulk/empty-wallet" xmlns="http://www.w3.org/2000/svg" width="24" height="24" viewBox="0 0 24 24">
  <g id="vuesax_bulk_empty-wallet-2" data-name="vuesax/bulk/empty-wallet">
    <g id="empty-wallet">
      <path id="Vector" d="M24,0V24H0V0Z" fill="#00af80" opacity="0"/>
      <path id="Vector-2" data-name="Vector" d="M14.94,7.43A2.132,2.132,0,0,0,17.1,9.3H19v1.19a3.768,3.768,0,0,1-3.76,3.76H3.76A3.768,3.768,0,0,1,0,10.49V3.76A3.768,3.768,0,0,1,3.76,0H15.24A3.768,3.768,0,0,1,19,3.76V5.2H16.98a2.06,2.06,0,0,0-2.04,2.23Z" transform="translate(2.5 7.75)" fill="#00af80" opacity="0.4"/>
      <path id="Vector-3" data-name="Vector" d="M12.35,5.7H3.76A3.768,3.768,0,0,0,0,9.461V5.791a2.848,2.848,0,0,1,1.84-2.67l7.94-3A1.9,1.9,0,0,1,12.35,1.9Z" transform="translate(2.5 2.049)" fill="#00af80"/>
      <path id="Vector-4" data-name="Vector" d="M5.129,3.08a1.027,1.027,0,0,1-1,1.02H2.169A2.132,2.132,0,0,1,.009,2.23,2.008,2.008,0,0,1,.609.6,1.993,1.993,0,0,1,2.049,0h2.08a1.027,1.027,0,0,1,1,1.02Z" transform="translate(17.432 12.95)" fill="#00af80"/>
      <g id="Group" transform="translate(6.25 11.25)">
        <path id="Vector-5" data-name="Vector" d="M.75,1.5A.755.755,0,0,1,0,.75.755.755,0,0,1,.75,0h7A.755.755,0,0,1,8.5.75a.755.755,0,0,1-.75.75Z" fill="#00af80"/>
      </g>
    </g>
  </g>
</svg>
